HIERARCHY
ROOT Hips
{
	OFFSET 0.000000 8.830580 0.000000
	CHANNELS 6 Xposition Yposition Zposition Zrotation Yrotation Xrotation 
	JOINT Spine
	{
		OFFSET 0.000000 0.010000 0.000000
		CHANNELS 3 Zrotation Yrotation Xrotation
		JOINT Spine1
		{
			OFFSET 0.000000 2.459130 0.000000
			CHANNELS 3 Zrotation Yrotation Xrotation
			JOINT Neck
			{
				OFFSET 0.000000 2.484630 0.000000
				CHANNELS 3 Zrotation Yrotation Xrotation
				JOINT Head_virtual
				{
					OFFSET 0.000000 0.000000 0.000000
					CHANNELS 3 Zrotation Yrotation Xrotation
					JOINT Head
					{
						OFFSET 0.000000 0.927525 0.000000
						CHANNELS 3 Zrotation Yrotation Xrotation
						End Site
						{
							OFFSET 0.000000 0.000000 0.000000
						}
					}
				}
				JOINT LeftUpArm_virtual
				{
					OFFSET 0.000000 0.000000 0.000000
					CHANNELS 3 Zrotation Yrotation Xrotation
					JOINT LeftUpArm
					{
						OFFSET 1.248820 0.000000 0.000000
						CHANNELS 3 Zrotation Yrotation Xrotation
						JOINT LeftForeArm
						{
							OFFSET 2.597580 0.000000 0.000000
							CHANNELS 3 Zrotation Yrotation Xrotation
							JOINT LeftHand
							{
								OFFSET 2.455420 0.000000 0.000000
								CHANNELS 3 Zrotation Yrotation Xrotation
								End Site
								{
									OFFSET 0.000000 0.000000 0.000000
								}
							}
						}
					}
				}
				JOINT RightUpArm_virtual
				{
					OFFSET -0.000000 -0.000000 -0.000000
					CHANNELS 3 Zrotation Yrotation Xrotation
					JOINT RightUpArm
					{
						OFFSET -1.248820 -0.000000 -0.000000
						CHANNELS 3 Zrotation Yrotation Xrotation
						JOINT RightForeArm
						{
							OFFSET -2.597580 -0.000000 -0.000000
							CHANNELS 3 Zrotation Yrotation Xrotation
							JOINT RightHand
							{
								OFFSET -2.455420 -0.000000 -0.000000
								CHANNELS 3 Zrotation Yrotation Xrotation
								End Site
								{
									OFFSET 0.000000 0.000000 0.000000
								}
							}
						}
					}
				}
			}
		}
	}
	JOINT LeftUpLeg
	{
		OFFSET 1.271939 0.000000 0.000000
		CHANNELS 3 Zrotation Yrotation Xrotation
		JOINT LeftLowLeg
		{
			OFFSET 0.000000 -4.342910 0.000000
			CHANNELS 3 Zrotation Yrotation Xrotation
			JOINT LeftFoot
			{
				OFFSET 0.000000 -4.487670 0.000000
				CHANNELS 3 Zrotation Yrotation Xrotation
				JOINT LeftToeBase
				{
					OFFSET 0.000000 0.000000 1.515070
					CHANNELS 3 Zrotation Yrotation Xrotation
					End Site
					{
						OFFSET 0.000000 0.000000 0.000000
					}
				}
			}
		}
	}
	JOINT RightUpLeg
	{
		OFFSET -1.271939 0.000000 0.000000
		CHANNELS 3 Zrotation Yrotation Xrotation
		JOINT RightLowLeg
		{
			OFFSET 0.000000 -4.342910 0.000000
			CHANNELS 3 Zrotation Yrotation Xrotation
			JOINT RightFoot
			{
				OFFSET 0.000000 -4.487670 0.000000
				CHANNELS 3 Zrotation Yrotation Xrotation
				JOINT RightToeBase
				{
					OFFSET 0.000000 0.000000 1.515070
					CHANNELS 3 Zrotation Yrotation Xrotation
					End Site
					{
						OFFSET 0.000000 0.000000 0.000000
					}
				}
			}
		}
	}
}
MOTION
Frames: 14
Frame Time: 0.041667
-16.018903 8.910518 32.315068 177.813129 3.327606 -176.086016 2.554951 -0.516122 -17.714942 -6.432896 3.520334 18.114864 0.000000 0.000000 0.000000 12.658911 4.157568 11.138520 -9.900790 -7.254149 -86.443913 -25.898800 1.190480 9.334015 -42.418301 -9.005070 35.798801 0.000000 -21.998600 0.000000 11.652000 16.535400 -9.368100 31.958401 -4.168610 2.971985 45.896198 2.973610 14.727997 0.000000 23.356100 0.000000 2.711710 -9.356790 -18.764900 -3.686544 -11.989947 -7.298645 0.000000 0.000000 15.386700 -2.539896 14.569429 0.831954 0.000000 0.000000 -35.143000 -0.091229 18.789264 -9.287263 0.000000 0.000000 22.340700 31.719447 -5.215462 -16.607838 0.000000 0.000000 -17.676690 
-16.021559 8.907263 32.309184 177.773407 3.224298 -176.283949 2.506431 -0.543674 -17.782728 -6.361470 3.540819 18.001537 0.000000 0.000000 0.000000 12.637215 3.856338 11.462718 -10.185040 -7.526820 -86.290834 -25.799900 1.199850 9.682007 -42.682301 -9.082170 34.698299 0.000000 -21.840099 0.000000 11.562600 16.267000 -8.857120 31.860901 -4.156940 3.109985 45.940201 2.875720 14.623993 0.000000 23.362600 0.000000 2.770090 -9.572850 -18.697800 -3.823039 -11.773314 -7.030344 0.000000 0.000000 15.121800 -1.034822 14.831436 2.014130 0.000000 0.000000 -35.039700 -0.093559 19.106548 -9.121474 0.000000 0.000000 22.468300 32.128902 -5.605688 -16.358914 0.000000 0.000000 -17.662920 
-16.025916 8.903843 32.297990 177.807110 3.279308 -176.716843 2.574117 -0.469154 -17.764615 -6.323228 3.584003 18.130589 0.000000 0.000000 0.000000 12.517714 3.725084 11.666262 -10.326886 -7.770264 -86.295400 -25.883699 1.256600 9.523010 -42.811699 -8.883540 33.868698 0.000000 -21.750999 0.000000 11.540600 16.036301 -8.620050 31.905300 -4.124070 3.088989 45.806099 2.801960 14.653992 0.000000 23.284000 0.000000 2.847160 -9.377750 -18.540800 -3.997822 -11.693231 -6.421899 0.000000 0.000000 14.856500 -0.085901 15.399948 2.506965 0.000000 0.000000 -34.895399 0.043599 18.934386 -8.608109 0.000000 0.000000 22.287500 32.275633 -5.997688 -15.199190 0.000000 0.000000 -17.564600 
-16.029978 8.898649 32.292044 177.808986 3.288843 -177.009684 2.654143 -0.359617 -17.781763 -6.423083 3.604118 18.250162 0.000000 0.000000 0.000000 12.532964 3.564222 11.705665 -10.470960 -7.902395 -86.360467 -25.987700 1.327090 9.447998 -42.861000 -8.880460 32.914700 0.000000 -21.615700 0.000000 11.558900 15.924000 -8.485570 32.116901 -4.011070 3.050995 45.537498 2.729960 14.846008 0.000000 23.276600 0.000000 2.815840 -9.355210 -18.349600 -4.148198 -11.842163 -6.115918 0.000000 0.000000 14.889000 0.280427 15.948413 2.599105 0.000000 0.000000 -34.800800 0.153309 18.358218 -8.224117 0.000000 0.000000 22.013201 31.619752 -6.475545 -14.314354 0.000000 0.000000 -17.537760 
-16.030885 8.893881 32.281858 177.715270 3.428850 -177.275954 2.630043 -0.229021 -17.979549 -6.504051 3.774024 18.579861 0.000000 0.000000 0.000000 12.440770 3.562103 11.506839 -10.447310 -7.924117 -86.290448 -26.080400 1.347560 9.276001 -42.893002 -8.859610 32.272701 0.000000 -21.495300 0.000000 11.638100 15.855400 -8.380770 32.324100 -3.910280 3.256012 45.318901 2.933770 14.933014 0.000000 23.248400 0.000000 2.688100 -9.398100 -18.223801 -4.341992 -11.781336 -5.788984 0.000000 0.000000 14.919800 0.571528 16.211406 2.589114 0.000000 0.000000 -34.616100 0.209620 18.680876 -8.015011 0.000000 0.000000 22.195299 31.646812 -6.959865 -14.530803 0.000000 0.000000 -17.419570 
-16.030622 8.891910 32.273006 177.686408 3.559604 -177.506699 2.673439 -0.050510 -18.151407 -6.684690 3.887275 18.855711 0.000000 0.000000 0.000000 12.494699 3.497639 11.373517 -10.440857 -7.896217 -86.265590 -26.164900 1.408280 9.148987 -42.915401 -8.938710 31.638300 0.000000 -21.306000 0.000000 11.610000 15.908900 -8.494410 32.584702 -3.700870 3.320007 45.107101 3.013940 15.179993 0.000000 23.063999 0.000000 2.639430 -9.163280 -17.797501 -4.441386 -11.537608 -5.471394 0.000000 0.000000 14.879800 0.666881 16.166895 2.568329 0.000000 0.000000 -34.553301 0.311860 18.765258 -7.791077 0.000000 0.000000 22.288700 31.520057 -7.233769 -14.553664 0.000000 0.000000 -17.232720 
-16.031764 8.893589 32.264363 177.774444 3.710217 -177.656336 2.881585 0.295661 -18.353254 -6.994387 3.963590 19.102755 0.000000 0.000000 0.000000 12.829919 3.257174 11.387339 -10.516517 -7.802552 -86.260443 -26.150400 1.412940 8.970001 -43.019402 -8.961300 31.062401 0.000000 -21.176901 0.000000 11.457600 16.204800 -8.434210 32.706100 -3.665270 3.337006 45.180000 3.227180 15.351990 0.000000 22.785000 0.000000 2.807460 -9.157210 -17.760500 -4.415782 -11.540239 -5.275899 0.000000 0.000000 14.939500 0.641336 16.308252 2.511616 0.000000 0.000000 -34.537201 0.451931 17.954397 -7.426011 0.000000 0.000000 21.869200 31.116448 -6.901552 -14.020143 0.000000 0.000000 -17.158650 
-16.032530 8.893991 32.246070 177.686669 3.508888 -178.126325 2.817668 0.248623 -18.318279 -7.084980 3.961276 19.190335 0.000000 0.000000 0.000000 12.765832 3.348351 11.533040 -10.485288 -7.785821 -86.145802 -26.014500 1.468160 8.877991 -43.445499 -8.921010 30.607800 0.000000 -20.956699 0.000000 11.357100 16.352200 -8.625380 32.464500 -3.652790 3.264008 45.546600 3.184990 15.713989 0.000000 22.556000 0.000000 2.926110 -9.392570 -18.061100 -4.627431 -11.880248 -4.689149 0.000000 0.000000 14.914600 0.585038 16.445886 2.541336 0.000000 0.000000 -34.544001 0.592257 19.296506 -6.911242 0.000000 0.000000 22.228300 31.522816 -7.889918 -14.699744 0.000000 0.000000 -16.919750 
-16.035840 8.896658 32.235219 177.739674 3.494594 -178.480604 2.951938 0.433351 -18.145738 -7.289124 3.896764 19.026071 0.000000 0.000000 0.000000 12.912532 3.253968 11.884729 -10.591794 -7.816045 -86.191428 -25.899000 1.545780 8.799011 -43.808601 -8.857290 30.171600 0.000000 -20.770901 0.000000 11.218500 16.595501 -9.221050 32.228298 -3.634350 3.170990 45.971901 3.092170 15.911011 0.000000 22.265900 0.000000 2.997590 -9.342900 -18.478600 -4.695519 -12.058678 -4.253422 0.000000 0.000000 14.914700 0.596629 16.628260 2.555639 0.000000 0.000000 -34.507000 0.716641 18.621206 -6.306615 0.000000 0.000000 21.832100 31.554159 -7.338741 -14.269134 0.000000 0.000000 -16.874860 
-16.035974 8.899045 32.224880 177.823888 3.439652 -178.738062 3.019520 0.493276 -18.023890 -7.320797 3.830663 18.803280 0.000000 0.000000 0.000000 12.910503 3.302369 12.297252 -10.623501 -7.873775 -86.221748 -25.854900 1.584220 8.746002 -44.131401 -8.725300 29.548800 0.000000 -20.604300 0.000000 11.057800 16.758900 -9.719320 32.043999 -3.604890 3.044006 46.231899 2.917050 16.165009 0.000000 22.166901 0.000000 2.734670 -9.489340 -17.507799 -4.691379 -12.172320 -3.920116 0.000000 0.000000 14.916500 0.551854 16.706036 2.519612 0.000000 0.000000 -34.446800 0.861878 17.918529 -5.786798 0.000000 0.000000 21.416500 31.575939 -6.826535 -13.853351 0.000000 0.000000 -16.854620 
-16.038349 8.900796 32.218415 177.945519 3.457384 -178.822905 3.171134 0.648397 -17.982791 -7.400714 3.759148 18.543847 0.000000 0.000000 0.000000 12.931513 3.267506 12.569225 -10.674501 -7.949113 -86.258993 -25.828400 1.598310 8.713989 -44.355801 -8.597130 28.985399 0.000000 -20.575701 0.000000 10.840000 16.996000 -10.501000 32.003601 -3.641000 3.104004 46.271801 2.937380 16.319000 0.000000 22.175501 0.000000 2.711900 -9.525030 -17.051399 -4.629679 -12.244783 -3.803583 0.000000 0.000000 14.965300 0.525122 16.826977 2.449855 0.000000 0.000000 -34.432800 0.985588 17.256711 -5.405933 0.000000 0.000000 20.846600 31.201207 -6.643059 -13.407780 0.000000 0.000000 -16.929730 
-16.038313 8.900482 32.211130 177.936313 3.563825 -178.972320 3.147776 0.723095 -17.888373 -7.361257 3.798274 18.312045 0.000000 0.000000 0.000000 12.875399 3.303240 12.755479 -10.691015 -8.009302 -86.258392 -25.840099 1.660410 8.606995 -44.480598 -8.461030 28.882000 0.000000 -20.526501 0.000000 11.046400 17.042999 -10.444900 31.995701 -3.672950 3.136993 46.203899 2.915100 16.584991 0.000000 22.288601 0.000000 2.394820 -9.368330 -16.650000 -4.694923 -12.146726 -3.596573 0.000000 0.000000 14.967500 0.587982 16.892186 2.419658 0.000000 0.000000 -34.371901 1.050651 17.518821 -5.205176 0.000000 0.000000 20.837200 31.277893 -6.777722 -13.509885 0.000000 0.000000 -16.847780 
-16.038271 8.899297 32.205613 177.945331 3.580112 -179.058069 3.139995 0.718239 -17.891853 -7.322199 3.797518 18.236145 0.000000 0.000000 0.000000 12.773189 3.405543 12.762638 -10.677100 -8.019403 -86.257551 -25.858999 1.722820 8.535004 -44.502800 -8.419320 28.920000 0.000000 -20.544399 0.000000 11.256100 16.996099 -9.994370 32.064800 -3.666780 3.153992 46.013401 3.030330 17.028992 0.000000 22.319300 0.000000 2.327560 -9.423110 -14.630800 -4.726119 -12.123770 -3.519217 0.000000 0.000000 15.062200 0.565131 16.934959 2.341489 0.000000 0.000000 -34.356400 1.108011 17.562227 -5.079873 0.000000 0.000000 20.840599 31.329368 -6.804082 -13.572097 0.000000 0.000000 -16.801230 
-16.038034 8.897841 32.200500 177.952110 3.557459 -179.141366 3.128751 0.680306 -17.938308 -7.275988 3.800768 18.276615 0.000000 0.000000 0.000000 12.713007 3.426063 12.623743 -10.693103 -8.010172 -86.204724 -25.890900 1.726460 8.511993 -44.398499 -8.384050 29.086500 0.000000 -20.699900 0.000000 11.262600 17.026899 -9.603820 32.158298 -3.645290 3.208008 45.755901 3.109190 17.351013 0.000000 22.563101 0.000000 2.122160 -9.107460 -16.177000 -4.752182 -12.141540 -3.457768 0.000000 0.000000 15.181200 0.616921 16.990632 2.269506 0.000000 0.000000 -34.340200 1.164792 17.617356 -5.005206 0.000000 0.000000 20.944700 31.332798 -6.880538 -13.667723 0.000000 0.000000 -16.734320 
